<?xml version="1.0" encoding="utf-8"?>
<!-- Generator: Adobe Illustrator 16.0.4, SVG Export Plug-In . SVG Version: 6.00 Build 0)  -->
<!DOCTYPE svg PUBLIC "-//W3C//DTD SVG 1.1//EN" "http://www.w3.org/Graphics/SVG/1.1/DTD/svg11.dtd">
<svg version="1.1" id="圖層_1" xmlns="http://www.w3.org/2000/svg" xmlns:xlink="http://www.w3.org/1999/xlink" x="0px" y="0px"
	 width="515.91px" height="515.91px" viewBox="0 0 515.91 515.91" enable-background="new 0 0 515.91 515.91" xml:space="preserve">
<circle fill="#FFFFFF" cx="160" cy="122" r="8"/>
<circle fill="#FFFFFF" cx="208" cy="122" r="8"/>
<path fill="#FFFFFF" d="M200,146v-8h-16v8c-0.005,4.416-3.584,7.995-8,8h-8v16h8C189.249,169.985,199.985,159.249,200,146z"/>
<path fill="#FFFFFF" d="M492.847,313.308c6.019-9.53,3.173-22.136-6.357-28.154c-3.262-2.06-7.041-3.153-10.898-3.153H344v0.02
	c-4.578,0.111-9.009,1.643-12.68,4.382l-0.85-5.383c-2.027-12.755-10.076-23.751-21.622-29.538l-61.98-30.99l-7.107-28.431
	c-0.735-2.933-3.061-5.2-6.011-5.86c9.229-11.364,14.262-25.56,14.25-40.2v-4.686l13.633-13.633l0.002-0.002l0.021-0.022
	l-0.001-0.001c1.501-1.5,2.345-3.534,2.345-5.656V67.373c-0.032-13.447-6.359-26.103-17.098-34.197
	c-10.766-8-25.208-8.989-36.964-2.53c-6.996-8.061-17.153-12.677-27.826-12.646H160c-30.914,0.035-55.965,25.086-56,56v32
	c-0.002,1.58,0.466,3.124,1.345,4.437l-0.001,0l0.012,0.018l0.02,0.03L120,132.422V146c-0.012,14.64,5.021,28.836,14.25,40.2
	c-2.95,0.66-5.276,2.927-6.011,5.86l-7.107,28.431l-61.98,30.99c-11.545,5.787-19.595,16.783-21.622,29.538L16.098,416.752
	c-0.292,1.855,0.076,3.754,1.042,5.364l24,40C42.586,464.525,45.19,466,48,466h24v24c0,4.418,3.582,8,8,8h408c4.418,0,8-3.582,8-8
	v-32c0-4.418-3.582-8-8-8h-4.686l-47.071-47.07L492.847,313.308z M480,302.409c0,0.834-0.236,1.65-0.682,2.355l-54.674,86.566
	l-2.988-2.988c-1.5-1.5-3.534-2.343-5.656-2.343h-64c-3.026,0.006-5.789,1.722-7.136,4.432l-0.02-0.01l-16,32
	c-1.977,3.952-0.375,8.757,3.577,10.733c1.111,0.556,2.336,0.845,3.578,0.845h44.686l9.79,9.789
	c-4.407,4.01-10.155,6.225-16.112,6.211h-81.744c1.294-1.718,2.448-3.537,3.451-5.439l68.146-130.099
	c2.679-5.062,3.276-10.967,1.669-16.462h109.705C478.024,298.002,479.997,299.975,480,302.409z M354.191,407.506L364.686,418
	h-15.741L354.191,407.506z M164.883,450l55.233-33.14c3.789-2.272,5.018-7.187,2.745-10.976c-0.11-0.182-0.227-0.361-0.351-0.534
	l-3.068-4.296L258.777,370h26.287l-41.905,80H164.883z M240,290c-1.306,0.004-2.591,0.327-3.744,0.942L219.313,274L232,261.313
	L260.686,290H240z M243.845,306h40.84l17.24,17.24L283.471,354H256c-1.799,0-3.545,0.606-4.957,1.721l-40.912,32.299l-21.177-29.648
	l23.077-13.461c0.85-0.496,1.602-1.145,2.216-1.913L243.845,306z M344.576,298c3.409,0,6.173,2.764,6.173,6.174
	c0,0.998-0.242,1.98-0.704,2.864l-68.146,130.099c-4.034,7.732-11.955,12.658-20.674,12.856l77.883-148.684
	C340.17,299.272,342.278,297.996,344.576,298z M136,146v-32h1.353c26.114-0.081,50.932-11.387,68.131-31.036
	c5.933,13.133,15.047,24.58,26.517,33.305V146c0,26.51-21.49,48-48,48S136,172.51,136,146z M237.302,45.976
	c6.719,5.065,10.678,12.983,10.698,21.397v40.496c-15.84-9.585-27.319-24.967-32-42.88V45.685
	C222.422,41.182,231.005,41.299,237.302,45.976z M120,74c0.025-22.081,17.919-39.975,40-40h22.111
	c7.314-0.026,14.105,3.789,17.889,10.048v19.674C186.274,85.024,162.694,97.927,137.353,98H120V74z M32.355,416.377l20.978-132.862
	c1.216-7.653,6.046-14.251,12.973-17.724l60.849-30.425l8.844,6.633c13.864,10.354,30.696,15.965,48,16.001v-16
	c-13.843-0.029-27.309-4.518-38.4-12.801l-8.55-6.412L142.246,202h10.814c19.248,10.667,42.632,10.667,61.88,0h10.814l6.485,25.94
	c0.566,2.266,2.095,4.171,4.184,5.215l65.271,32.636c6.928,3.473,11.757,10.07,12.973,17.724l3.637,23.029l-3.59,6.854
	l-21.057-21.056c-1.5-1.5-3.535-2.343-5.656-2.343h-4.686l-45.658-45.657c-3.125-3.123-8.189-3.123-11.313,0l-24,24
	c-3.125,3.124-3.125,8.19,0,11.313c0,0.001,0,0.001,0,0.001l23.381,23.382l-23.042,28.801L120,380.071V354h-16v40
	c0,4.418,3.581,8,7.999,8c1.417,0,2.808-0.376,4.032-1.09l59.044-34.442l29.379,41.131L133.784,450H52.529L32.355,416.377z M480,482
	H88v-16h392V482z M419.313,450l-48-48h41.373l48,48H419.313z"/>
</svg>
