<?xml version="1.0" encoding="utf-8"?>
<!-- Generator: Adobe Illustrator 16.0.4, SVG Export Plug-In . SVG Version: 6.00 Build 0)  -->
<!DOCTYPE svg PUBLIC "-//W3C//DTD SVG 1.1//EN" "http://www.w3.org/Graphics/SVG/1.1/DTD/svg11.dtd">
<svg version="1.1" id="圖層_1" xmlns="http://www.w3.org/2000/svg" xmlns:xlink="http://www.w3.org/1999/xlink" x="0px" y="0px"
	 width="515.91px" height="515.91px" viewBox="0 0 515.91 515.91" enable-background="new 0 0 515.91 515.91" xml:space="preserve">
<path fill="#FFFFFF" d="M177,162c-0.005,4.416-3.584,7.995-8,8h-8v16h8c13.249-0.015,23.985-10.751,24-24v-8h-16V162z"/>
<circle fill="#FFFFFF" cx="153" cy="138" r="8"/>
<circle fill="#FFFFFF" cx="201" cy="138" r="8"/>
<path fill="#FFFFFF" d="M441,394c0.03-26.497,21.503-47.97,48-48c4.418,0,8-3.582,8-8s-3.582-8-8-8H353
	c-24.903,0.025-47.535,14.479-58.033,37.061l-7.491-12.484l3.356-0.789c4.264-1.002,6.928-5.247,5.978-9.522l-13.092-58.911
	c-1.659-7.396-5.374-14.172-10.718-19.548V114c0-53.02-42.98-96-96-96s-96,42.98-96,96v72c0.061,23.397,9.385,45.817,25.933,62.357
	l-18.804,11.752c-8.295,5.221-14.402,13.285-17.176,22.686C39.897,287.772,17.042,314.548,17,346v144c0,4.418,3.582,8,8,8h464
	c4.418,0,8-3.582,8-8v-40c0-4.418-3.582-8-8-8h-48V394z M353,346h93.712c-13.807,12.131-21.718,29.621-21.712,48v16H305v-16
	C305.03,367.503,326.503,346.03,353,346z M161,442v-16h136v16H161z M121,442v-16h24v16H121z M79.42,356.141l33.58,4.798V370
	c0,4.109,3.114,7.551,7.204,7.961l80,8c1.123,0.111,2.256-0.016,3.326-0.371l43.309-14.438L265,389.314V410H92.313l-18.745-18.746
	L79.42,356.141z M289,403.052l-8-5.333V386c0-2.121-0.843-4.156-2.343-5.656l-23.304-23.305l-19.569-32.613l10.673-7.115
	L289,388.216V403.052z M278.834,340.174l-15.733-26.223c0.633,0.02,1.263,0.049,1.899,0.049c3.37-0.002,6.377-2.117,7.519-5.288
	l6.958,31.311L278.834,340.174z M97,186v-72c0-44.183,35.817-80,80-80s80,35.817,80,80v183.334c-23.08-3.935-39.97-23.922-40-47.334
	v-38.093c15.167-12.125,23.999-30.489,24-49.907v-56c0-4.418-3.582-8-8-8h-51.056l-13.789-27.578
	c-1.976-3.952-6.781-5.554-10.732-3.578c-1.548,0.774-2.804,2.03-3.578,3.578L140.056,98H121c-4.418,0-8,3.582-8,8v56
	c0.013,21.847,11.17,42.178,29.593,53.922l-4.272,12.819l-17.382,10.864C105.747,225.918,97.052,206.447,97,186z M183.553,254.597
	l-29.199-23.358l2.801-8.403c12.894,4.22,26.797,4.22,39.69,0l3.239,9.719L183.553,254.597z M177,210
	c-26.498-0.03-47.97-21.503-48-48v-48h16c3.03,0,5.8-1.712,7.155-4.422L161,91.889l8.845,17.689C171.2,112.288,173.97,114,177,114
	h48v48C224.97,188.497,203.498,209.97,177,210z M96.609,273.678l47.822-29.888L177,269.845V322h16v-53.333l8.442-11.257
	c2.427,20.617,14.686,38.783,32.896,48.75l-13.775,9.184c-3.553,2.369-4.62,7.11-2.423,10.771l18.869,31.449l-36.915,12.305
	L129,362.76V314h-16v30.775l-38.316-5.473l11.218-50.479C87.312,282.551,91.166,277.1,96.609,273.678z M33,346
	c0.027-21.111,13.822-39.734,34.008-45.914l-9.818,44.179c-0.96,4.304,1.751,8.571,6.055,9.531c0.111,0.024,0.222,0.047,0.334,0.067
	l-6.471,38.822c-0.424,2.548,0.408,5.145,2.234,6.971l24,24C84.843,425.157,86.878,426,89,426h16v16H33V346z M481,482H33v-24h448
	V482z M313,442v-16h112v16H313z"/>
</svg>
