<?xml version="1.0" encoding="utf-8"?>
<!-- Generator: Adobe Illustrator 16.0.4, SVG Export Plug-In . SVG Version: 6.00 Build 0)  -->
<!DOCTYPE svg PUBLIC "-//W3C//DTD SVG 1.1//EN" "http://www.w3.org/Graphics/SVG/1.1/DTD/svg11.dtd">
<svg version="1.1" id="Capa_1" xmlns="http://www.w3.org/2000/svg" xmlns:xlink="http://www.w3.org/1999/xlink" x="0px" y="0px"
	 width="515.91px" height="515.91px" viewBox="0 0 515.91 515.91" enable-background="new 0 0 515.91 515.91" xml:space="preserve">
<path fill="#FFFFFF" d="M161,162h8c13.249-0.015,23.985-10.751,24-24v-8h-16v8c-0.005,4.416-3.584,7.995-8,8h-8V162z"/>
<circle fill="#FFFFFF" cx="153" cy="114.298" r="8"/>
<circle fill="#FFFFFF" cx="201" cy="114.298" r="8"/>
<path fill="#FFFFFF" d="M465,322h-40v-0.843c-0.029-26.032-21.125-47.128-47.157-47.157H361c-16.473,0.01-31.79,8.467-40.574,22.401
	l-4.955-31.383c-2.027-12.755-10.076-23.751-21.622-29.539l-63.371-31.685l-11.625-17.438C232.916,174.226,241.001,156.573,241,138
	V84.34c10.464-16.503,16.014-35.644,16-55.184V26c0-4.418-3.582-8-8-8h-80c-10.166,0.013-19.225,6.419-22.624,16H145
	c-17.665,0.02-31.98,14.335-32,32v72c-0.001,18.573,8.084,36.226,22.147,48.357l-11.625,17.438L60.151,235.48
	c-11.546,5.787-19.595,16.784-21.622,29.539L17.098,400.752C17.032,401.165,17,401.582,17,402v88c0,4.418,3.582,8,8,8h40
	c3.813,0,7.097-2.691,7.845-6.432l11.992-59.958l3.847,58.911c0.275,4.207,3.768,7.479,7.983,7.479H465
	c17.665-0.02,31.98-14.335,32-32V354C496.98,336.335,482.665,322.02,465,322z M471.664,339.473l-13.706,31.981
	c-3.775,8.829-12.456,14.554-22.059,14.546H433v-48h32C467.302,338.002,469.576,338.505,471.664,339.473z M385,450v32h-32v-32h8v-16
	h-8v-32h32v32h-8v16H385z M305,386h-2.899c-9.603,0.008-18.283-5.717-22.059-14.546l-13.706-31.981
	c2.088-0.968,4.361-1.471,6.664-1.473h32V386z M321,338h16v96h-16V338z M353,322c0.005-4.416,3.584-7.995,8-8h16
	c4.416,0.005,7.995,3.584,8,8H353z M385,338v48h-32v-48H385z M401,338h16v96h-16V338z M361,290h16.843
	c17.199,0.02,31.138,13.957,31.157,31.157V322h-8c-0.015-13.248-10.751-23.984-24-24h-16c-13.249,0.016-23.985,10.752-24,24h-8
	C329.02,304.335,343.335,290.02,361,290z M255.241,258h-31.293l19.791-29.687l6.184,3.092L255.241,258z M104.077,231.406
	l6.184-3.092L130.052,258H98.759L104.077,231.406z M143.757,278.557L169,316.422v44.977l-45.51-62.575L143.757,278.557z
	 M154.231,265.426l13.924-27.848c1.126-2.252,1.126-4.903,0-7.155l-6.518-13.036l5.389-16.168c6.608,1.042,13.338,1.042,19.946,0
	l5.389,16.168l-6.518,13.036c-1.126,2.252-1.126,4.903,0,7.155l13.924,27.848L177,299.578L154.231,265.426z M185,316.422
	l25.243-37.865l20.267,20.267L185,361.398V316.422z M218.344,214.438c0.772,1.158,1.833,2.095,3.078,2.718l7.895,3.947
	l-19.327,28.99L201.944,234l6.211-12.422c0.949-1.897,1.105-4.095,0.435-6.107l-6.239-18.717c1.084-0.47,2.15-0.973,3.203-1.5
	L218.344,214.438z M161,42c0.005-4.416,3.584-7.995,8-8h71.867c-0.771,14.134-4.983,27.865-12.27,40H161V42z M129,66
	c0.01-8.833,7.167-15.99,16-16v24h-16V66z M129,138V90h96v48c0,26.51-21.49,48-48,48S129,164.51,129,138z M135.656,214.438
	l12.79-19.185c1.053,0.527,2.119,1.03,3.203,1.5l-6.239,18.717c-0.671,2.013-0.515,4.21,0.435,6.107L152.056,234l-8.046,16.092
	l-19.327-28.99l7.895-3.947C133.823,216.533,134.884,215.596,135.656,214.438z M96.924,371.172l7.92-39.604l-15.689-3.137
	L58.441,482H33v-79.372l21.334-135.114c1.216-7.653,6.046-14.251,12.974-17.723l18.64-9.32l-4.792,23.961
	c-0.866,4.332,1.944,8.547,6.277,9.413C87.948,273.947,88.474,274,89,274h36.687l-18.344,18.344
	c-2.783,2.783-3.128,7.178-0.812,10.361l63.996,87.995l0.002,0.003l0.002,0.002c0.223,0.303,0.466,0.588,0.729,0.856
	c0.075,0.077,0.156,0.148,0.234,0.224c0.2,0.191,0.41,0.371,0.629,0.541c0.091,0.07,0.182,0.14,0.276,0.206
	c0.27,0.19,0.551,0.365,0.843,0.521c0.042,0.023,0.082,0.051,0.125,0.072c0.342,0.172,0.695,0.318,1.058,0.439
	c0.035,0.013,0.067,0.031,0.103,0.043c0.064,0.021,0.13,0.027,0.195,0.047c0.276,0.082,0.557,0.15,0.84,0.201
	c0.107,0.021,0.214,0.043,0.321,0.058c0.368,0.055,0.739,0.084,1.11,0.087h0.006H177h0.001h0.006
	c0.372-0.003,0.742-0.032,1.11-0.087c0.108-0.015,0.215-0.038,0.323-0.058c0.282-0.051,0.561-0.118,0.836-0.2
	c0.066-0.02,0.133-0.026,0.198-0.048c0.036-0.012,0.068-0.031,0.104-0.043c0.361-0.121,0.713-0.268,1.053-0.438
	c0.047-0.025,0.09-0.055,0.137-0.08c0.287-0.154,0.564-0.324,0.83-0.513c0.097-0.067,0.189-0.139,0.282-0.211
	c0.217-0.167,0.425-0.347,0.624-0.536c0.08-0.076,0.162-0.148,0.238-0.227c0.262-0.268,0.505-0.553,0.728-0.855l0.002-0.002
	l0.001-0.002l63.996-87.996c2.315-3.184,1.971-7.578-0.812-10.361L228.313,274H265c4.418,0,8-3.582,8-8.001
	c0-0.526-0.053-1.052-0.155-1.567l-4.792-23.961l18.64,9.32c6.928,3.472,11.757,10.071,12.974,17.723L308.27,322H273
	c-17.665,0.02-31.98,14.335-32,32v112c-0.004,5.62,1.481,11.141,4.305,16H104.161L96.924,371.172z M273,482
	c-8.832-0.01-15.99-7.168-16-16V358.309l8.335,19.448c6.294,14.716,20.761,24.255,36.766,24.243H305v32h-8v16h8v32H273z M321,482
	v-32h16v32H321z M401,482v-32h16v32H401z M465,482h-32v-32h8v-16h-8v-32h2.899c16.005,0.012,30.472-9.527,36.766-24.243L481,358.309
	V466C480.99,474.832,473.832,481.99,465,482z"/>
</svg>
